<?xml version="1.0" encoding="utf-8"?>
<!-- Generator: Adobe Illustrator 19.0.0, SVG Export Plug-In . SVG Version: 6.00 Build 0)  -->
<svg version="1.1" id="Layer_1" xmlns="http://www.w3.org/2000/svg" xmlns:xlink="http://www.w3.org/1999/xlink" x="0px" y="0px"
	 viewBox="0 0 953.8 41.5" style="enable-background:new 0 0 953.8 41.5;" xml:space="preserve">
<style type="text/css">
	.st0{fill:none;stroke:#EFA8AD;stroke-width:9;stroke-miterlimit:10;}
</style>
<path id="XMLID_1_" class="st0" d="M2.8,17.2c2.2-1.8,5.5-4.2,9.8-6.3c5.4-2.7,10.7-5.4,17.2-5.3c9.1,0.2,16.6,5.7,21.8,9.5
	c5.9,4.3,5.8,6,9.5,7c8,2.2,12.7-3.1,17.6-1.1c4.7,2,3.6,6.1,7.7,9.1c0.3,0.2,0.6,0.4,0.8,0.5C91,33.1,99,38,108.5,36.4
	c6.1-1.1,10.1-4.4,11.5-5.5c4.5-3.8,3.4-5.6,7.1-9.1c4.9-4.6,8.3-2.5,23.5-8.8c5.1-2.1,7.6-3.1,7.7-3.2c9.2-4,9.8-4.9,13-5.3
	c5.2-0.5,9.6,1.5,12.3,2.8c5,2.4,4.7,3.8,9.1,6.3c10.1,5.7,17.8,1.4,22.5,7.4c2,2.5,0.7,3.5,2.8,6c5,6,15.4,4.7,19,4.2
	c4-0.5,12.2-1.6,15.8-7.4c1.5-2.4,1-3.6,2.8-6.3c2.9-4.1,7.3-5.7,10.2-6.7c7-2.3,20.4-4.1,27.4,3.2c3.3,3.5,1.8,5.5,6,9.8
	c1.4,1.4,5.9,6.2,13.3,6.7c5.9,0.4,11.6-2.1,15.1-6c3-3.3,1.9-4.8,4.6-7.7c4.7-5.2,12.5-5.2,18.3-5.3c5.6,0,14.2-0.1,20,5.6
	c3.6,3.6,2.3,5.5,6,9.1c4.8,4.7,12.5,6.7,19,5.6c5.6-0.9,6-3.5,19.3-11.9c8.3-5.3,12.5-8.1,17.2-8.4c7.2-0.5,13,3.1,17.2,5.6
	c5.9,3.6,5.9,5.5,16.2,13.3c6.8,5.2,9.1,6.1,11.6,6.3c6.7,0.6,12-3.7,12.6-4.2c3.1-2.6,2.7-4.2,6-8.4c1.5-2,5.6-7.2,12.3-10.2
	c2-0.9,9.8-4.2,18.6-1.4c6,1.9,9.7,5.8,10.9,7c3.5,3.7,2.8,5.2,5.6,7.7c4.7,4.2,11.1,4.2,16.2,4.2c4.9,0,12.3,0,17.9-4.9
	c4.3-3.7,2.8-6.1,7-9.8c5.5-4.8,12.7-4.9,18.3-4.9c6.3-0.1,14-0.2,19,4.9c4.1,4.2,2.5,8,7,11.6c5,4,11.8,3.1,14,2.8
	c1.7-0.2,9.1-1.2,13.3-7c2.5-3.5,1.1-4.9,3.2-8.1c5-7.8,19.1-7.4,26.3-6c3.4,0.7,9.8,2,12.6,7c1,1.7,0.7,2.3,1.4,4.2
	C701.6,27.9,709.5,32,716,33c1.3,0.2,11.8,1.8,18.3-4.6c3-2.9,1.7-4.3,4.6-7.4c5.4-5.9,11.1-2.6,21.8-7.7c6.9-3.3,6.8-5.9,13.3-7.7
	c1.8-0.5,6.5-1.8,12.3-0.7c5,1,5.8,2.8,12.3,6c9.7,4.7,12.5,2.8,19.7,7c6,3.5,5.3,5.6,10.5,9.5c13.1,9.7,34.9,10.3,41.4,1.8
	c2-2.6,1.9-5.1,4.9-7c4.2-2.7,8.9-0.8,13-0.4c13.1,1.4,18.7-12.3,31.3-15.1c6.4-1.5,16.5-0.5,31.6,12.3"/>
</svg>
