<?xml version="1.0" encoding="utf-8"?>
<!-- Generator: Adobe Illustrator 19.0.0, SVG Export Plug-In . SVG Version: 6.00 Build 0)  -->
<svg version="1.1" id="Layer_1" xmlns="http://www.w3.org/2000/svg" xmlns:xlink="http://www.w3.org/1999/xlink" x="0px" y="0px"
	 viewBox="0 0 1585.9 48.5" style="enable-background:new 0 0 1585.9 48.5;" xml:space="preserve">
<style type="text/css">
	.st0{fill:none;stroke:#EFA8AD;stroke-width:9;stroke-miterlimit:10;}
</style>
<path id="XMLID_1_" class="st0" d="M0.1,28.4c1.4,0,3.4,0.1,5.8,0.5c6.3,0.9,8.8,2.6,14.6,4.4c3.3,1,9.3,2.9,16.5,2.9
	c1.5,0,4.4-0.1,14.6-2.4c13.4-3,12.4-3.8,17-4.4c14.8-1.9,23.6,5.7,27.2,1.5c2.5-2.8-1.1-6.5,1.9-12.2c2-3.6,6.2-7.2,10.7-6.8
	c3.1,0.3,5.2,2.4,6.8,3.9c5.6,5.4,3.7,10.5,8.3,13.6c1.8,1.3,5,1.3,11.2,1.5c8.5,0.2,9.2-0.9,13.6-0.5c6.5,0.7,6.9,3.2,16.5,6.8
	c4.7,1.7,10.7,4,18.5,3.9c7.3-0.1,12.8-2.1,17.5-3.9c3.7-1.4,9-3.4,14.6-7.8c5.4-4.2,4.8-5.6,10.2-9.7c4.7-3.6,9-6.8,14.6-6.8
	c7.4,0,13,5.7,15.6,8.3c6.3,6.3,4.8,10.1,10.7,14.1c4.4,2.9,9,3.5,12.6,3.9c6.3,0.7,10.5-0.4,14.6-1c10.3-1.4,13.3,1.3,24.8,1.9
	c7.2,0.4,31.7,1.8,42.8-11.2c5.2-6,9.2-12.2,9.2-12.2c4.5-6.7,5.1-9.2,7.8-9.7c4.8-1,10.9,5.5,13.6,11.2c2.3,4.8,0.9,6.2,2.9,9.7
	c4.8,8.5,17.6,9.5,19.9,9.7c1.3,0.1,17.5,1.2,24.8-8.8c3.2-4.4,1.5-6.5,5.4-11.7c1-1.4,6.8-9.4,15.6-9.7c9.1-0.4,16.5,7.9,19.9,14.1
	c4.5,8.1,1,12.7,5.4,16.5c2.2,1.9,4.9,2.3,22.4,0c20-2.6,22.3-3.8,24.3-5.8c4.6-4.7,2.3-8.2,8.3-15.6c2.4-3,7.6-9.4,13.6-8.8
	c6.6,0.7,10.5,9.6,12.2,13.1c4,8.8,1.4,12.6,5.4,17c4,4.4,10.2,4.6,17.5,4.9c5.5,0.2,21,0.7,25.8-7.8c2.7-4.7-0.6-7.5,2.4-13.6
	c2.2-4.4,7.2-9.6,13.6-9.7c8.1-0.2,13.6,7.8,15.6,11.7c3.1,6.1,0.7,8.3,3.4,12.6c4.6,7.5,18.2,9.6,28.2,6.3
	c2-0.7,11.1-3.6,15.1-11.7c3.1-6.3,0.2-9.7,3.9-15.6c2.5-3.9,7.2-7.6,13.1-8.3c5.2-0.6,11,1.3,14.6,5.4c5.6,6.4,0.7,12.6,5.8,20.4
	c5.5,8.4,16.5,9.6,18,9.7c0.6,0.1,13.2,1.2,20.9-7.3c5.3-5.8,3.3-11,10.7-19.5c2.9-3.3,5.9-6.6,10.2-6.8c6.3-0.3,11,6.3,11.7,7.3
	c2.9,4.2,1.9,6.6,3.9,11.2c3.4,7.7,10.8,11.5,13.1,12.6c9.7,4.9,24.5,5.4,31.1-1.9c4.3-4.7,1.2-8.3,6.3-17c2-3.5,7.2-12.4,15.1-12.6
	c6.8-0.2,12.5,6,15.1,10.7c4,7.2,0.6,11.3,4.9,16.5c3.1,3.8,7.4,4.8,14.1,6.3c5.8,1.3,12.3,2.9,18.5-0.5c3.5-1.9,5.5-4.6,6.8-6.3
	c3.4-4.5,3.7-7.9,5.4-12.2c2.2-5.5,8.2-16.6,15.1-16.5c6.5,0,11.7,10,13.6,15.1c2.7,7.2,0.5,9.5,3.4,13.6c4.7,6.8,15,7.1,20.4,7.3
	c4.9,0.2,17.8,0.6,23.4-7.3c2.9-4.2,0.8-6.4,3.4-13.6c2.6-7.1,9.2-17.5,16.1-17c7,0.5,12,12.4,14.1,17.5c2.4,5.8,1.4,6.5,3.4,9.2
	c4.3,5.9,12,6.6,26.3,7.8c12.4,1,18.7,1.5,21.9-2.4c0.9-1.1,2.3-4.5,4.9-11.2c2.1-5.3,1.8-5.1,2.4-6.3c2.6-4.7,7.9-9,14.6-10.2
	c5.9-1,14,0.2,18,5.4c2.8,3.6,1.1,5.8,4.4,11.2c3.2,5.2,7.6,7.8,9.2,8.8c7.9,4.6,15.8,3.8,18.5,3.4c14.5-3.8,18.8-9,19.9-13.1
	c0.9-3.1-0.1-5.4,1.9-9.2c0.3-0.5,4.1-7.5,10.7-7.8c5.4-0.3,9.2,4.1,11.7,6.8c5.1,5.7,4.7,9.8,7.3,14.1c5.7,9.3,20.1,10.2,35.5,11.2
	c22,1.4,22.3-4.4,39.9-1.5c6.5,1.1,11.6,2.7,16.9-0.2c2.4-1.4,3.4-2.8,11.8-14c6-7.9,6.6-8.5,7.8-9.2c6.3-4,15.9-4,21.4,0.6
	c2.8,2.4,2.7,3.8,5.5,8.2c3.1,4.9,7.4,7.1,13.7,10.3c19.9,10,40.4,6.2,40.4,6.2c3.6-2.9,6.8-4.5,9-5.3c1.8-0.7,3.1-1,10.6-2.5
	c5.8-1.2,8.6-1.8,9.1-1.8c9.6-0.8,14.6,1.2,19.2-2.7c6.1-5.3,3-14.1,8.2-16.4c4.2-1.9,11.3,1.8,14.4,6.8c3.7,6,0.2,11.3,3.4,14.4
	c3.4,3.3,9.8-0.4,18.5-2.1c21.1-4.1,25,9.3,43.8,4.8c7.6-1.8,13.4-5.6,25.3-5.5c1.6,0,2.8,0.1,3.8,0.3c1.4,0.2,2.6,0.5,4.4,0.4
	c0.5,0,1,0,1.3-0.1"/>
</svg>
