<?xml version="1.0" encoding="utf-8"?>
<!-- Generator: Adobe Illustrator 19.0.0, SVG Export Plug-In . SVG Version: 6.00 Build 0)  -->
<svg version="1.1" id="Layer_1" xmlns="http://www.w3.org/2000/svg" xmlns:xlink="http://www.w3.org/1999/xlink" x="0px" y="0px"
	 viewBox="0 0 981.1 35.8" style="enable-background:new 0 0 981.1 35.8;" xml:space="preserve">
<style type="text/css">
	.st0{fill:none;stroke:#EFA8AD;stroke-width:9;stroke-miterlimit:10;}
</style>
<path id="XMLID_2_" class="st0" d="M1.2,16.6c2.8,0.8,6.9,1.7,12,2c5.2,0.3,8.4-0.2,11-0.3c9.2-0.4,12.9,4.1,22,7
	c19.6,6.2,38.7-3.6,40-4.3c7.9-4.2,6.2-6.3,13.7-9.7c10.2-4.6,26.1-6.4,36.3,1.3c5.8,4.4,4.8,8.1,11,11.3c6.1,3.2,11.3,1.7,20,1
	c17.6-1.5,16.8,2.7,37.7,1.7c13.1-0.7,19.8-1.1,26.3-5.3c5.6-3.7,6.5-6.9,13.3-10c2.5-1.1,12.5-5.6,19-1.3c5.2,3.4,2.3,8.7,7.7,14.3
	c6.4,6.8,17,6.3,23,6c4.5-0.2,9.9-0.5,14-4.3c3.1-2.9,2.4-4.8,4.7-7.7c6.9-8.4,27.3-8,34.3,1c2.5,3.3,1.4,5.1,4.3,8
	c5.4,5.3,14.6,4,19,3.3c4.2-0.6,12.2-1.8,17.7-8c4.9-5.6,2.4-9.2,6.7-13.3c6.1-6,19.1-6.4,26-0.7c5.4,4.5,2.9,9.3,9,15.3
	c6.7,6.6,16,7,18,7c9.9,0.1,18.6-5.2,23.3-11.3c2.6-3.4,2.5-5.1,5.7-7.7c0.5-0.4,7-5.5,15.3-4c0,0,5.2,0.9,13.3,8.3
	c1,0.9,1.8,1.9,1.8,1.9c0.8,1,1.3,1.8,1.6,2.2c1,1.7,2.5,2.6,4.3,3.8c12.9,8.7,22.3,7,22.3,7c2-0.3,10.1-2,13.7-8.3
	c1.7-2.9,0.7-4,2.3-6.3c4.4-6.4,16.3-5.3,20-5c5,0.5,12.9,1,17.7,6.7c2.3,2.8,1.4,3.7,3.7,6.3c4.3,4.9,11.2,5.3,18,5.7
	c7.5,0.4,13.3,0.8,17.3-3c3.4-3.2,1.8-5.9,4.7-9.7c6.7-8.7,26.8-8.5,33-0.3c2,2.6,1,4.1,3.3,7c4.4,5.4,12.3,5.8,17,6
	c4.7,0.2,17.9,0.8,23.3-7c2.6-3.8,1.4-6.6,5-10c4.1-3.9,9.7-4,10.7-4c6.5,0,11.1,4.1,14,6.3C753,26,771.6,26.1,785.5,26.2
	c11.7,0.1,12.3-2.1,24.7-1.3c11.6,0.7,14.5,2.9,20,0.7c9.2-3.7,6.9-12.3,16.3-17.7c12.7-7.2,29.3,1.3,30,1.7c4.9,2.6,5,4.3,10,8
	c9.8,7.4,27,14.2,42.7,10.3c12.1-3,17.7-11.1,28.3-9.3c1.5,0.2,4.6,0.9,9,0.7c5.5-0.3,9.8-2,12.7-3.3"/>
</svg>
