<?xml version="1.0" encoding="utf-8"?>
<!-- Generator: Adobe Illustrator 19.0.0, SVG Export Plug-In . SVG Version: 6.00 Build 0)  -->
<svg version="1.1" id="Layer_1" xmlns="http://www.w3.org/2000/svg" xmlns:xlink="http://www.w3.org/1999/xlink" x="0px" y="0px"
	 viewBox="484.9 367.5 1581.7 58.5" style="enable-background:new 484.9 367.5 1581.7 58.5;" xml:space="preserve">
<style type="text/css">
	.st0{fill:none;stroke:#EFA8AD;stroke-width:9;stroke-miterlimit:10;}
</style>
<path id="XMLID_1_" class="st0" d="M485.6,388.5c1.2-0.2,3.1-0.5,5.5-0.7c8-0.7,10.3,0.7,14.1,0c7.6-1.3,7.1-8.1,13.4-9.4
	c9-1.9,12.5,7.4,24.7,11.8c12.5,4.5,16.6-3.6,25.8,1.1c9.3,4.8,16.1,17.2,16.1,17.2c5.3,2.3,11.9,3.9,17.2,1.1
	c5.7-3.1,5-8.8,11.8-17.2c1.7-2.2,7.5-9.1,17.2-12.9c12.6-5,24-1.6,25.8-1.1c11.2,3.5,10.9,13.6,20.4,15.1c7.3,1.1,9.2-3.9,15.1-2.2
	c8.8,2.6,7.6,15.1,17.2,21.5c6.4,4.2,15.6,5.8,21.5,2.2c4.6-2.8,3.4-6.4,7.5-12.9c4.3-6.8,9.2-8.5,32.3-20.4
	c11.1-5.7,12.7-10,18.3-9.7c6.1,0.3,6.8,4.3,16.1,8.6c13.5,6.3,19.1,1.3,25.8,7.5c6.4,6,3.6,12.8,9.7,17.2c5.8,4.2,14.9,3.9,20.4,0
	c3.2-2.3,2.6-3.9,6.3-9.6c2-3,9.8-14.9,22.3-17.8c4.1-1,7.1-0.6,12.3,0c8.6,1,18.6,2.2,24.6,9.1c3.8,4.4,3.6,8.3,11,19.6
	c0.9,1.4,2.6,3.9,5.1,4.1c2.8,0.2,5.2-2.8,6.4-4.4c10.4-13.5,11.4-17.1,15.1-20.4c7.9-7.3,19.8-6.2,26.2-5.7
	c4.8,0.4,17,1.5,24.3,10.3c2.8,3.3,2,4.4,6.2,9.9c4,5.4,9.2,12.3,14.4,11.7c2-0.2,3.7-1.5,9.9-11.7c8.7-14.2,7.6-15.1,11-18.2
	c7.4-6.4,19.2-5.9,26.4-3.7c3.2,1,6.5,2,9.4,4.9c5.3,5.5,2.5,11.2,7.8,19.8c1.4,2.3,5.3,8.5,10,8.3c2.2-0.1,4.2-1.6,8.3-7.2
	c6.9-9.4,6.6-12.8,9.9-16.4c8.1-8.9,26.1-11.2,38.1-3.4c2.1,1.3,10.1,6.5,12,15.1c0.7,3.2,0.1,4.9,1.7,7.9c1.9,3.5,6.4,7.7,12.3,7.5
	c3.9-0.1,7.5-2.1,9.6-4.8c2.3-2.9,2.1-5.7,2.7-8.6c2-9.7,11.5-15.7,12.7-16.5c14.4-9.2,39.2-0.5,43.2,11c1,3,0.8,6.7,4.1,11.3
	c1.3,1.8,4,5.7,8.2,6.2c4.7,0.6,8.6-3.3,11.3-6.2c6.9-7.1,5.2-11.4,10.3-17.5c7.5-8.8,19.4-9.5,20.9-9.6c1.2-0.1,13.6-0.4,22.6,8.6
	c2.8,2.8,7,8.2,8.6,15.4c1,4.5,0.3,6.7,2.4,10.3c0.3,0.5,4.3,7.1,9.9,6.9c5.1-0.2,8.4-6.1,10.3-9.6c4.6-8.2,2.1-11.9,5.1-17.8
	c4.6-8.9,16.3-12.5,24-13c11.5-0.8,25.1,4.6,28.8,13.7c1.2,3,0.6,4.4,2.7,9.6c1.9,4.6,4.8,11.5,9.3,12c5.4,0.6,10.2-8.2,11-9.6
	c4.3-8,1-12.1,5.1-18.5c3.8-6,10.2-8.1,12.7-8.9c0.8-0.3,12.3-3.9,22.6,2.4c7.9,4.8,11.6,13.2,12.3,15.1c1.8,4.5,1.8,7.6,5.1,11.3
	c1.4,1.6,4.7,5.3,8.6,5.1c6.1-0.2,7.4-10.2,16.1-19.9c2.3-2.6,10.2-11.3,21.3-13.4c13.9-2.7,29.9,5.6,38.7,16.1
	c6,7.1,7.9,14.4,13,14.4c3.9,0,7.1-4.2,9.6-7.5c5.5-7.3,4.1-11.4,7.5-16.1c6.1-8.4,19.7-8.3,25.7-8.2c2.5,0,24.9,0.5,32.6,14.1
	c2.3,4,2.2,7.4,6.5,12.7c2.6,3.2,6.2,7.7,11.3,7.5c5.8-0.1,9.5-6.1,9.9-6.9c2.7-4.5,0.9-7,2.4-11c2.5-6.4,9.5-5.7,25.4-13
	c12.6-5.8,15.2-9.5,22.6-8.9c3.6,0.3,5.1,1.3,11.7,4.3c22.8,10.1,26,6.8,32.2,13.2c5.1,5.3,2.9,7.5,12,19.5c5.4,7.1,8.1,8.9,11,8.9
	c1.7,0,4-0.7,10.3-7.9c9.1-10.4,8-13.3,12.7-16.5c6.8-4.6,11.1,0,21.9-3.1c11.6-3.3,10.5-9.7,20.2-13c14.2-4.9,35.5,2,44.6,15.1
	c3.9,5.6,4.2,10.4,9.9,13.4c5.4,2.8,12.3,2.3,17.5,0c7.2-3.3,5.6-7.8,13-12.3c4.2-2.6,5.3-1.5,23-5.5c6.8-1.5,10.2-2.3,12.3-3.1
	c12.7-4.6,14.7-10.4,20.2-9.3c6.1,1.3,5.9,8.8,13.4,10.2c3.4,0.6,4.6-0.7,10.3-0.2c4.1,0.3,7.4,1.3,9.6,2.1"/>
</svg>
